# Tiled2Unity generated file. Do not modify by hand.
# Wavefront file for 'GameMap_mesh_0002.obj'

# Vertices (Count = 24)
v -384 -6 0
v -385 -6 0
v -385 -5 0
v -384 -5 0
v -385 -6 0
v -386 -6 0
v -386 -5 0
v -385 -5 0
v -384 -7 0
v -385 -7 0
v -385 -6 0
v -384 -6 0
v -385 -7 0
v -386 -7 0
v -386 -6 0
v -385 -6 0
v -384 -8 0
v -385 -8 0
v -385 -7 0
v -384 -7 0
v -385 -8 0
v -386 -8 0
v -386 -7 0
v -385 -7 0

# Texture cooridinates (Count = 10)
vt 0 0
vt 0.125 0
vt 0.125 0.125
vt 0 0.125
vt 0.375 0.125
vt 0.5 0.125
vt 0.5 0.25
vt 0.375 0.25
vt 0.625 0.125
vt 0.625 0.25

# Normal
vn 0 0 -1

# Mesh description
g GameMap_mesh_0002

# Faces
f 1/1/1 2/2/1 3/3/1 4/4/1
f 5/1/1 6/2/1 7/3/1 8/4/1
f 9/5/1 10/6/1 11/7/1 12/8/1
f 13/6/1 14/9/1 15/10/1 16/7/1
f 17/5/1 18/6/1 19/7/1 20/8/1
f 21/6/1 22/9/1 23/10/1 24/7/1

