# Tiled2Unity generated file. Do not modify by hand.
# Wavefront file for 'GameMap_mesh_0006.obj'

# Vertices (Count = 640)
v -4 -3 0
v -5 -3 0
v -5 -2 0
v -4 -2 0
v -5 -3 0
v -6 -3 0
v -6 -2 0
v -5 -2 0
v -6 -3 0
v -7 -3 0
v -7 -2 0
v -6 -2 0
v -7 -3 0
v -8 -3 0
v -8 -2 0
v -7 -2 0
v -17 -3 0
v -18 -3 0
v -18 -2 0
v -17 -2 0
v -18 -3 0
v -19 -3 0
v -19 -2 0
v -18 -2 0
v -19 -3 0
v -20 -3 0
v -20 -2 0
v -19 -2 0
v -20 -3 0
v -21 -3 0
v -21 -2 0
v -20 -2 0
v -34 -3 0
v -35 -3 0
v -35 -2 0
v -34 -2 0
v -35 -3 0
v -36 -3 0
v -36 -2 0
v -35 -2 0
v -36 -3 0
v -37 -3 0
v -37 -2 0
v -36 -2 0
v -37 -3 0
v -38 -3 0
v -38 -2 0
v -37 -2 0
v -262 -3 0
v -263 -3 0
v -263 -2 0
v -262 -2 0
v -263 -3 0
v -264 -3 0
v -264 -2 0
v -263 -2 0
v -264 -3 0
v -265 -3 0
v -265 -2 0
v -264 -2 0
v -265 -3 0
v -266 -3 0
v -266 -2 0
v -265 -2 0
v -286 -3 0
v -287 -3 0
v -287 -2 0
v -286 -2 0
v -287 -3 0
v -288 -3 0
v -288 -2 0
v -287 -2 0
v -288 -3 0
v -289 -3 0
v -289 -2 0
v -288 -2 0
v -289 -3 0
v -290 -3 0
v -290 -2 0
v -289 -2 0
v -4 -4 0
v -5 -4 0
v -5 -3 0
v -4 -3 0
v -5 -4 0
v -6 -4 0
v -6 -3 0
v -5 -3 0
v -6 -4 0
v -7 -4 0
v -7 -3 0
v -6 -3 0
v -7 -4 0
v -8 -4 0
v -8 -3 0
v -7 -3 0
v -17 -4 0
v -18 -4 0
v -18 -3 0
v -17 -3 0
v -18 -4 0
v -19 -4 0
v -19 -3 0
v -18 -3 0
v -19 -4 0
v -20 -4 0
v -20 -3 0
v -19 -3 0
v -20 -4 0
v -21 -4 0
v -21 -3 0
v -20 -3 0
v -34 -4 0
v -35 -4 0
v -35 -3 0
v -34 -3 0
v -35 -4 0
v -36 -4 0
v -36 -3 0
v -35 -3 0
v -36 -4 0
v -37 -4 0
v -37 -3 0
v -36 -3 0
v -37 -4 0
v -38 -4 0
v -38 -3 0
v -37 -3 0
v -262 -4 0
v -263 -4 0
v -263 -3 0
v -262 -3 0
v -263 -4 0
v -264 -4 0
v -264 -3 0
v -263 -3 0
v -264 -4 0
v -265 -4 0
v -265 -3 0
v -264 -3 0
v -265 -4 0
v -266 -4 0
v -266 -3 0
v -265 -3 0
v -286 -4 0
v -287 -4 0
v -287 -3 0
v -286 -3 0
v -287 -4 0
v -288 -4 0
v -288 -3 0
v -287 -3 0
v -288 -4 0
v -289 -4 0
v -289 -3 0
v -288 -3 0
v -289 -4 0
v -290 -4 0
v -290 -3 0
v -289 -3 0
v -4 -5 0
v -5 -5 0
v -5 -4 0
v -4 -4 0
v -5 -5 0
v -6 -5 0
v -6 -4 0
v -5 -4 0
v -6 -5 0
v -7 -5 0
v -7 -4 0
v -6 -4 0
v -7 -5 0
v -8 -5 0
v -8 -4 0
v -7 -4 0
v -17 -5 0
v -18 -5 0
v -18 -4 0
v -17 -4 0
v -18 -5 0
v -19 -5 0
v -19 -4 0
v -18 -4 0
v -19 -5 0
v -20 -5 0
v -20 -4 0
v -19 -4 0
v -20 -5 0
v -21 -5 0
v -21 -4 0
v -20 -4 0
v -34 -5 0
v -35 -5 0
v -35 -4 0
v -34 -4 0
v -35 -5 0
v -36 -5 0
v -36 -4 0
v -35 -4 0
v -36 -5 0
v -37 -5 0
v -37 -4 0
v -36 -4 0
v -37 -5 0
v -38 -5 0
v -38 -4 0
v -37 -4 0
v -262 -5 0
v -263 -5 0
v -263 -4 0
v -262 -4 0
v -263 -5 0
v -264 -5 0
v -264 -4 0
v -263 -4 0
v -264 -5 0
v -265 -5 0
v -265 -4 0
v -264 -4 0
v -265 -5 0
v -266 -5 0
v -266 -4 0
v -265 -4 0
v -286 -5 0
v -287 -5 0
v -287 -4 0
v -286 -4 0
v -287 -5 0
v -288 -5 0
v -288 -4 0
v -287 -4 0
v -288 -5 0
v -289 -5 0
v -289 -4 0
v -288 -4 0
v -289 -5 0
v -290 -5 0
v -290 -4 0
v -289 -4 0
v -4 -6 0
v -5 -6 0
v -5 -5 0
v -4 -5 0
v -5 -6 0
v -6 -6 0
v -6 -5 0
v -5 -5 0
v -6 -6 0
v -7 -6 0
v -7 -5 0
v -6 -5 0
v -7 -6 0
v -8 -6 0
v -8 -5 0
v -7 -5 0
v -17 -6 0
v -18 -6 0
v -18 -5 0
v -17 -5 0
v -18 -6 0
v -19 -6 0
v -19 -5 0
v -18 -5 0
v -19 -6 0
v -20 -6 0
v -20 -5 0
v -19 -5 0
v -20 -6 0
v -21 -6 0
v -21 -5 0
v -20 -5 0
v -34 -6 0
v -35 -6 0
v -35 -5 0
v -34 -5 0
v -35 -6 0
v -36 -6 0
v -36 -5 0
v -35 -5 0
v -36 -6 0
v -37 -6 0
v -37 -5 0
v -36 -5 0
v -37 -6 0
v -38 -6 0
v -38 -5 0
v -37 -5 0
v -262 -6 0
v -263 -6 0
v -263 -5 0
v -262 -5 0
v -263 -6 0
v -264 -6 0
v -264 -5 0
v -263 -5 0
v -264 -6 0
v -265 -6 0
v -265 -5 0
v -264 -5 0
v -265 -6 0
v -266 -6 0
v -266 -5 0
v -265 -5 0
v -286 -6 0
v -287 -6 0
v -287 -5 0
v -286 -5 0
v -287 -6 0
v -288 -6 0
v -288 -5 0
v -287 -5 0
v -288 -6 0
v -289 -6 0
v -289 -5 0
v -288 -5 0
v -289 -6 0
v -290 -6 0
v -290 -5 0
v -289 -5 0
v -4 -7 0
v -5 -7 0
v -5 -6 0
v -4 -6 0
v -5 -7 0
v -6 -7 0
v -6 -6 0
v -5 -6 0
v -6 -7 0
v -7 -7 0
v -7 -6 0
v -6 -6 0
v -7 -7 0
v -8 -7 0
v -8 -6 0
v -7 -6 0
v -17 -7 0
v -18 -7 0
v -18 -6 0
v -17 -6 0
v -18 -7 0
v -19 -7 0
v -19 -6 0
v -18 -6 0
v -19 -7 0
v -20 -7 0
v -20 -6 0
v -19 -6 0
v -20 -7 0
v -21 -7 0
v -21 -6 0
v -20 -6 0
v -34 -7 0
v -35 -7 0
v -35 -6 0
v -34 -6 0
v -35 -7 0
v -36 -7 0
v -36 -6 0
v -35 -6 0
v -36 -7 0
v -37 -7 0
v -37 -6 0
v -36 -6 0
v -37 -7 0
v -38 -7 0
v -38 -6 0
v -37 -6 0
v -262 -7 0
v -263 -7 0
v -263 -6 0
v -262 -6 0
v -263 -7 0
v -264 -7 0
v -264 -6 0
v -263 -6 0
v -264 -7 0
v -265 -7 0
v -265 -6 0
v -264 -6 0
v -265 -7 0
v -266 -7 0
v -266 -6 0
v -265 -6 0
v -286 -7 0
v -287 -7 0
v -287 -6 0
v -286 -6 0
v -287 -7 0
v -288 -7 0
v -288 -6 0
v -287 -6 0
v -288 -7 0
v -289 -7 0
v -289 -6 0
v -288 -6 0
v -289 -7 0
v -290 -7 0
v -290 -6 0
v -289 -6 0
v -4 -8 0
v -5 -8 0
v -5 -7 0
v -4 -7 0
v -5 -8 0
v -6 -8 0
v -6 -7 0
v -5 -7 0
v -6 -8 0
v -7 -8 0
v -7 -7 0
v -6 -7 0
v -7 -8 0
v -8 -8 0
v -8 -7 0
v -7 -7 0
v -17 -8 0
v -18 -8 0
v -18 -7 0
v -17 -7 0
v -18 -8 0
v -19 -8 0
v -19 -7 0
v -18 -7 0
v -19 -8 0
v -20 -8 0
v -20 -7 0
v -19 -7 0
v -20 -8 0
v -21 -8 0
v -21 -7 0
v -20 -7 0
v -34 -8 0
v -35 -8 0
v -35 -7 0
v -34 -7 0
v -35 -8 0
v -36 -8 0
v -36 -7 0
v -35 -7 0
v -36 -8 0
v -37 -8 0
v -37 -7 0
v -36 -7 0
v -37 -8 0
v -38 -8 0
v -38 -7 0
v -37 -7 0
v -262 -8 0
v -263 -8 0
v -263 -7 0
v -262 -7 0
v -263 -8 0
v -264 -8 0
v -264 -7 0
v -263 -7 0
v -264 -8 0
v -265 -8 0
v -265 -7 0
v -264 -7 0
v -265 -8 0
v -266 -8 0
v -266 -7 0
v -265 -7 0
v -286 -8 0
v -287 -8 0
v -287 -7 0
v -286 -7 0
v -287 -8 0
v -288 -8 0
v -288 -7 0
v -287 -7 0
v -288 -8 0
v -289 -8 0
v -289 -7 0
v -288 -7 0
v -289 -8 0
v -290 -8 0
v -290 -7 0
v -289 -7 0
v -4 -9 0
v -5 -9 0
v -5 -8 0
v -4 -8 0
v -5 -9 0
v -6 -9 0
v -6 -8 0
v -5 -8 0
v -6 -9 0
v -7 -9 0
v -7 -8 0
v -6 -8 0
v -7 -9 0
v -8 -9 0
v -8 -8 0
v -7 -8 0
v -17 -9 0
v -18 -9 0
v -18 -8 0
v -17 -8 0
v -18 -9 0
v -19 -9 0
v -19 -8 0
v -18 -8 0
v -19 -9 0
v -20 -9 0
v -20 -8 0
v -19 -8 0
v -20 -9 0
v -21 -9 0
v -21 -8 0
v -20 -8 0
v -34 -9 0
v -35 -9 0
v -35 -8 0
v -34 -8 0
v -35 -9 0
v -36 -9 0
v -36 -8 0
v -35 -8 0
v -36 -9 0
v -37 -9 0
v -37 -8 0
v -36 -8 0
v -37 -9 0
v -38 -9 0
v -38 -8 0
v -37 -8 0
v -262 -9 0
v -263 -9 0
v -263 -8 0
v -262 -8 0
v -263 -9 0
v -264 -9 0
v -264 -8 0
v -263 -8 0
v -264 -9 0
v -265 -9 0
v -265 -8 0
v -264 -8 0
v -265 -9 0
v -266 -9 0
v -266 -8 0
v -265 -8 0
v -286 -9 0
v -287 -9 0
v -287 -8 0
v -286 -8 0
v -287 -9 0
v -288 -9 0
v -288 -8 0
v -287 -8 0
v -288 -9 0
v -289 -9 0
v -289 -8 0
v -288 -8 0
v -289 -9 0
v -290 -9 0
v -290 -8 0
v -289 -8 0
v -4 -10 0
v -5 -10 0
v -5 -9 0
v -4 -9 0
v -5 -10 0
v -6 -10 0
v -6 -9 0
v -5 -9 0
v -6 -10 0
v -7 -10 0
v -7 -9 0
v -6 -9 0
v -7 -10 0
v -8 -10 0
v -8 -9 0
v -7 -9 0
v -17 -10 0
v -18 -10 0
v -18 -9 0
v -17 -9 0
v -18 -10 0
v -19 -10 0
v -19 -9 0
v -18 -9 0
v -19 -10 0
v -20 -10 0
v -20 -9 0
v -19 -9 0
v -20 -10 0
v -21 -10 0
v -21 -9 0
v -20 -9 0
v -34 -10 0
v -35 -10 0
v -35 -9 0
v -34 -9 0
v -35 -10 0
v -36 -10 0
v -36 -9 0
v -35 -9 0
v -36 -10 0
v -37 -10 0
v -37 -9 0
v -36 -9 0
v -37 -10 0
v -38 -10 0
v -38 -9 0
v -37 -9 0
v -262 -10 0
v -263 -10 0
v -263 -9 0
v -262 -9 0
v -263 -10 0
v -264 -10 0
v -264 -9 0
v -263 -9 0
v -264 -10 0
v -265 -10 0
v -265 -9 0
v -264 -9 0
v -265 -10 0
v -266 -10 0
v -266 -9 0
v -265 -9 0
v -286 -10 0
v -287 -10 0
v -287 -9 0
v -286 -9 0
v -287 -10 0
v -288 -10 0
v -288 -9 0
v -287 -9 0
v -288 -10 0
v -289 -10 0
v -289 -9 0
v -288 -9 0
v -289 -10 0
v -290 -10 0
v -290 -9 0
v -289 -9 0

# Texture cooridinates (Count = 121)
vt 0 0.9375
vt 0.0625 0.9375
vt 0.0625 1
vt 0 1
vt 0.125 0.9375
vt 0.125 1
vt 0.1875 0.9375
vt 0.1875 1
vt 0.25 0.9375
vt 0.25 1
vt 0 0.4375
vt 0.0625 0.4375
vt 0.0625 0.5
vt 0 0.5
vt 0.125 0.4375
vt 0.125 0.5
vt 0.1875 0.4375
vt 0.1875 0.5
vt 0.25 0.4375
vt 0.25 0.5
vt 0.3125 0.4375
vt 0.3125 0.5
vt 0.375 0.4375
vt 0.375 0.5
vt 0.4375 0.4375
vt 0.4375 0.5
vt 0.5 0.4375
vt 0.5 0.5
vt 0 0.875
vt 0.0625 0.875
vt 0.125 0.875
vt 0.1875 0.875
vt 0.25 0.875
vt 0 0.375
vt 0.0625 0.375
vt 0.125 0.375
vt 0.1875 0.375
vt 0.25 0.375
vt 0.3125 0.375
vt 0.375 0.375
vt 0.4375 0.375
vt 0.5 0.375
vt 0 0.8125
vt 0.0625 0.8125
vt 0.125 0.8125
vt 0.1875 0.8125
vt 0.25 0.8125
vt 0 0.3125
vt 0.0625 0.3125
vt 0.125 0.3125
vt 0.1875 0.3125
vt 0.25 0.3125
vt 0.3125 0.3125
vt 0.375 0.3125
vt 0.4375 0.3125
vt 0.5 0.3125
vt 0 0.75
vt 0.0625 0.75
vt 0.125 0.75
vt 0.1875 0.75
vt 0.25 0.75
vt 0 0.25
vt 0.0625 0.25
vt 0.125 0.25
vt 0.1875 0.25
vt 0.25 0.25
vt 0.3125 0.25
vt 0.375 0.25
vt 0.4375 0.25
vt 0.5 0.25
vt 0 0.6875
vt 0.0625 0.6875
vt 0.125 0.6875
vt 0.1875 0.6875
vt 0.25 0.6875
vt 0 0.1875
vt 0.0625 0.1875
vt 0.125 0.1875
vt 0.1875 0.1875
vt 0.25 0.1875
vt 0.3125 0.1875
vt 0.375 0.1875
vt 0.4375 0.1875
vt 0.5 0.1875
vt 0 0.625
vt 0.0625 0.625
vt 0.125 0.625
vt 0.1875 0.625
vt 0.25 0.625
vt 0 0.125
vt 0.0625 0.125
vt 0.125 0.125
vt 0.1875 0.125
vt 0.25 0.125
vt 0.3125 0.125
vt 0.375 0.125
vt 0.4375 0.125
vt 0.5 0.125
vt 0 0.5625
vt 0.0625 0.5625
vt 0.125 0.5625
vt 0.1875 0.5625
vt 0.25 0.5625
vt 0 0.0625
vt 0.0625 0.0625
vt 0.125 0.0625
vt 0.1875 0.0625
vt 0.25 0.0625
vt 0.3125 0.0625
vt 0.375 0.0625
vt 0.4375 0.0625
vt 0.5 0.0625
vt 0 0
vt 0.0625 0
vt 0.125 0
vt 0.1875 0
vt 0.25 0
vt 0.3125 0
vt 0.375 0
vt 0.4375 0
vt 0.5 0

# Normal
vn 0 0 -1

# Mesh description
g GameMap_mesh_0006

# Faces
f 1/1/1 2/2/1 3/3/1 4/4/1
f 5/2/1 6/5/1 7/6/1 8/3/1
f 9/5/1 10/7/1 11/8/1 12/6/1
f 13/7/1 14/9/1 15/10/1 16/8/1
f 17/11/1 18/12/1 19/13/1 20/14/1
f 21/12/1 22/15/1 23/16/1 24/13/1
f 25/15/1 26/17/1 27/18/1 28/16/1
f 29/17/1 30/19/1 31/20/1 32/18/1
f 33/19/1 34/21/1 35/22/1 36/20/1
f 37/21/1 38/23/1 39/24/1 40/22/1
f 41/23/1 42/25/1 43/26/1 44/24/1
f 45/25/1 46/27/1 47/28/1 48/26/1
f 49/1/1 50/2/1 51/3/1 52/4/1
f 53/2/1 54/5/1 55/6/1 56/3/1
f 57/5/1 58/7/1 59/8/1 60/6/1
f 61/7/1 62/9/1 63/10/1 64/8/1
f 65/19/1 66/21/1 67/22/1 68/20/1
f 69/21/1 70/23/1 71/24/1 72/22/1
f 73/23/1 74/25/1 75/26/1 76/24/1
f 77/25/1 78/27/1 79/28/1 80/26/1
f 81/29/1 82/30/1 83/2/1 84/1/1
f 85/30/1 86/31/1 87/5/1 88/2/1
f 89/31/1 90/32/1 91/7/1 92/5/1
f 93/32/1 94/33/1 95/9/1 96/7/1
f 97/34/1 98/35/1 99/12/1 100/11/1
f 101/35/1 102/36/1 103/15/1 104/12/1
f 105/36/1 106/37/1 107/17/1 108/15/1
f 109/37/1 110/38/1 111/19/1 112/17/1
f 113/38/1 114/39/1 115/21/1 116/19/1
f 117/39/1 118/40/1 119/23/1 120/21/1
f 121/40/1 122/41/1 123/25/1 124/23/1
f 125/41/1 126/42/1 127/27/1 128/25/1
f 129/29/1 130/30/1 131/2/1 132/1/1
f 133/30/1 134/31/1 135/5/1 136/2/1
f 137/31/1 138/32/1 139/7/1 140/5/1
f 141/32/1 142/33/1 143/9/1 144/7/1
f 145/38/1 146/39/1 147/21/1 148/19/1
f 149/39/1 150/40/1 151/23/1 152/21/1
f 153/40/1 154/41/1 155/25/1 156/23/1
f 157/41/1 158/42/1 159/27/1 160/25/1
f 161/43/1 162/44/1 163/30/1 164/29/1
f 165/44/1 166/45/1 167/31/1 168/30/1
f 169/45/1 170/46/1 171/32/1 172/31/1
f 173/46/1 174/47/1 175/33/1 176/32/1
f 177/48/1 178/49/1 179/35/1 180/34/1
f 181/49/1 182/50/1 183/36/1 184/35/1
f 185/50/1 186/51/1 187/37/1 188/36/1
f 189/51/1 190/52/1 191/38/1 192/37/1
f 193/52/1 194/53/1 195/39/1 196/38/1
f 197/53/1 198/54/1 199/40/1 200/39/1
f 201/54/1 202/55/1 203/41/1 204/40/1
f 205/55/1 206/56/1 207/42/1 208/41/1
f 209/43/1 210/44/1 211/30/1 212/29/1
f 213/44/1 214/45/1 215/31/1 216/30/1
f 217/45/1 218/46/1 219/32/1 220/31/1
f 221/46/1 222/47/1 223/33/1 224/32/1
f 225/52/1 226/53/1 227/39/1 228/38/1
f 229/53/1 230/54/1 231/40/1 232/39/1
f 233/54/1 234/55/1 235/41/1 236/40/1
f 237/55/1 238/56/1 239/42/1 240/41/1
f 241/57/1 242/58/1 243/44/1 244/43/1
f 245/58/1 246/59/1 247/45/1 248/44/1
f 249/59/1 250/60/1 251/46/1 252/45/1
f 253/60/1 254/61/1 255/47/1 256/46/1
f 257/62/1 258/63/1 259/49/1 260/48/1
f 261/63/1 262/64/1 263/50/1 264/49/1
f 265/64/1 266/65/1 267/51/1 268/50/1
f 269/65/1 270/66/1 271/52/1 272/51/1
f 273/66/1 274/67/1 275/53/1 276/52/1
f 277/67/1 278/68/1 279/54/1 280/53/1
f 281/68/1 282/69/1 283/55/1 284/54/1
f 285/69/1 286/70/1 287/56/1 288/55/1
f 289/57/1 290/58/1 291/44/1 292/43/1
f 293/58/1 294/59/1 295/45/1 296/44/1
f 297/59/1 298/60/1 299/46/1 300/45/1
f 301/60/1 302/61/1 303/47/1 304/46/1
f 305/66/1 306/67/1 307/53/1 308/52/1
f 309/67/1 310/68/1 311/54/1 312/53/1
f 313/68/1 314/69/1 315/55/1 316/54/1
f 317/69/1 318/70/1 319/56/1 320/55/1
f 321/71/1 322/72/1 323/58/1 324/57/1
f 325/72/1 326/73/1 327/59/1 328/58/1
f 329/73/1 330/74/1 331/60/1 332/59/1
f 333/74/1 334/75/1 335/61/1 336/60/1
f 337/76/1 338/77/1 339/63/1 340/62/1
f 341/77/1 342/78/1 343/64/1 344/63/1
f 345/78/1 346/79/1 347/65/1 348/64/1
f 349/79/1 350/80/1 351/66/1 352/65/1
f 353/80/1 354/81/1 355/67/1 356/66/1
f 357/81/1 358/82/1 359/68/1 360/67/1
f 361/82/1 362/83/1 363/69/1 364/68/1
f 365/83/1 366/84/1 367/70/1 368/69/1
f 369/71/1 370/72/1 371/58/1 372/57/1
f 373/72/1 374/73/1 375/59/1 376/58/1
f 377/73/1 378/74/1 379/60/1 380/59/1
f 381/74/1 382/75/1 383/61/1 384/60/1
f 385/80/1 386/81/1 387/67/1 388/66/1
f 389/81/1 390/82/1 391/68/1 392/67/1
f 393/82/1 394/83/1 395/69/1 396/68/1
f 397/83/1 398/84/1 399/70/1 400/69/1
f 401/85/1 402/86/1 403/72/1 404/71/1
f 405/86/1 406/87/1 407/73/1 408/72/1
f 409/87/1 410/88/1 411/74/1 412/73/1
f 413/88/1 414/89/1 415/75/1 416/74/1
f 417/90/1 418/91/1 419/77/1 420/76/1
f 421/91/1 422/92/1 423/78/1 424/77/1
f 425/92/1 426/93/1 427/79/1 428/78/1
f 429/93/1 430/94/1 431/80/1 432/79/1
f 433/94/1 434/95/1 435/81/1 436/80/1
f 437/95/1 438/96/1 439/82/1 440/81/1
f 441/96/1 442/97/1 443/83/1 444/82/1
f 445/97/1 446/98/1 447/84/1 448/83/1
f 449/85/1 450/86/1 451/72/1 452/71/1
f 453/86/1 454/87/1 455/73/1 456/72/1
f 457/87/1 458/88/1 459/74/1 460/73/1
f 461/88/1 462/89/1 463/75/1 464/74/1
f 465/94/1 466/95/1 467/81/1 468/80/1
f 469/95/1 470/96/1 471/82/1 472/81/1
f 473/96/1 474/97/1 475/83/1 476/82/1
f 477/97/1 478/98/1 479/84/1 480/83/1
f 481/99/1 482/100/1 483/86/1 484/85/1
f 485/100/1 486/101/1 487/87/1 488/86/1
f 489/101/1 490/102/1 491/88/1 492/87/1
f 493/102/1 494/103/1 495/89/1 496/88/1
f 497/104/1 498/105/1 499/91/1 500/90/1
f 501/105/1 502/106/1 503/92/1 504/91/1
f 505/106/1 506/107/1 507/93/1 508/92/1
f 509/107/1 510/108/1 511/94/1 512/93/1
f 513/108/1 514/109/1 515/95/1 516/94/1
f 517/109/1 518/110/1 519/96/1 520/95/1
f 521/110/1 522/111/1 523/97/1 524/96/1
f 525/111/1 526/112/1 527/98/1 528/97/1
f 529/99/1 530/100/1 531/86/1 532/85/1
f 533/100/1 534/101/1 535/87/1 536/86/1
f 537/101/1 538/102/1 539/88/1 540/87/1
f 541/102/1 542/103/1 543/89/1 544/88/1
f 545/108/1 546/109/1 547/95/1 548/94/1
f 549/109/1 550/110/1 551/96/1 552/95/1
f 553/110/1 554/111/1 555/97/1 556/96/1
f 557/111/1 558/112/1 559/98/1 560/97/1
f 561/14/1 562/13/1 563/100/1 564/99/1
f 565/13/1 566/16/1 567/101/1 568/100/1
f 569/16/1 570/18/1 571/102/1 572/101/1
f 573/18/1 574/20/1 575/103/1 576/102/1
f 577/113/1 578/114/1 579/105/1 580/104/1
f 581/114/1 582/115/1 583/106/1 584/105/1
f 585/115/1 586/116/1 587/107/1 588/106/1
f 589/116/1 590/117/1 591/108/1 592/107/1
f 593/117/1 594/118/1 595/109/1 596/108/1
f 597/118/1 598/119/1 599/110/1 600/109/1
f 601/119/1 602/120/1 603/111/1 604/110/1
f 605/120/1 606/121/1 607/112/1 608/111/1
f 609/14/1 610/13/1 611/100/1 612/99/1
f 613/13/1 614/16/1 615/101/1 616/100/1
f 617/16/1 618/18/1 619/102/1 620/101/1
f 621/18/1 622/20/1 623/103/1 624/102/1
f 625/117/1 626/118/1 627/109/1 628/108/1
f 629/118/1 630/119/1 631/110/1 632/109/1
f 633/119/1 634/120/1 635/111/1 636/110/1
f 637/120/1 638/121/1 639/112/1 640/111/1

