# Tiled2Unity generated file. Do not modify by hand.
# Wavefront file for 'MapUnity._mesh_0008.obj'

# Vertices (Count = 116)
v -219 -2 0
v -220 -2 0
v -220 -1 0
v -219 -1 0
v -301 -4 0
v -302 -4 0
v -302 -3 0
v -301 -3 0
v -44 -5 0
v -45 -5 0
v -45 -4 0
v -44 -4 0
v -230 -5 0
v -231 -5 0
v -231 -4 0
v -230 -4 0
v -107 -6 0
v -108 -6 0
v -108 -5 0
v -107 -5 0
v -133 -6 0
v -134 -6 0
v -134 -5 0
v -133 -5 0
v -135 -6 0
v -136 -6 0
v -136 -5 0
v -135 -5 0
v -168 -6 0
v -169 -6 0
v -169 -5 0
v -168 -5 0
v -169 -6 0
v -170 -6 0
v -170 -5 0
v -169 -5 0
v -170 -6 0
v -171 -6 0
v -171 -5 0
v -170 -5 0
v -176 -6 0
v -177 -6 0
v -177 -5 0
v -176 -5 0
v -324 -6 0
v -325 -6 0
v -325 -5 0
v -324 -5 0
v -106 -7 0
v -107 -7 0
v -107 -6 0
v -106 -6 0
v -107 -7 0
v -108 -7 0
v -108 -6 0
v -107 -6 0
v -119 -7 0
v -120 -7 0
v -120 -6 0
v -119 -6 0
v -385 -7 0
v -386 -7 0
v -386 -6 0
v -385 -6 0
v -331 -8 0
v -332 -8 0
v -332 -7 0
v -331 -7 0
v -335 -8 0
v -336 -8 0
v -336 -7 0
v -335 -7 0
v -384 -8 0
v -385 -8 0
v -385 -7 0
v -384 -7 0
v -385 -8 0
v -386 -8 0
v -386 -7 0
v -385 -7 0
v -339 -9 0
v -340 -9 0
v -340 -8 0
v -339 -8 0
v -341 -9 0
v -342 -9 0
v -342 -8 0
v -341 -8 0
v -32 -10 0
v -33 -10 0
v -33 -9 0
v -32 -9 0
v -33 -10 0
v -34 -10 0
v -34 -9 0
v -33 -9 0
v -267 -10 0
v -268 -10 0
v -268 -9 0
v -267 -9 0
v -268 -10 0
v -269 -10 0
v -269 -9 0
v -268 -9 0
v -276 -10 0
v -277 -10 0
v -277 -9 0
v -276 -9 0
v -277 -10 0
v -278 -10 0
v -278 -9 0
v -277 -9 0
v -281 -10 0
v -282 -10 0
v -282 -9 0
v -281 -9 0

# Texture cooridinates (Count = 22)
vt 0.75 0.875
vt 0.875 0.875
vt 0.875 1
vt 0.75 1
vt 0.5 0.875
vt 0.625 0.875
vt 0.625 1
vt 0.5 1
vt 0 0
vt 0.125 0
vt 0.125 0.125
vt 0 0.125
vt 0.25 0.375
vt 0.375 0.375
vt 0.375 0.5
vt 0.25 0.5
vt 0.5 0.375
vt 0.5 0.5
vt 0.25 0
vt 0.25 0.125
vt 1 0.875
vt 1 1

# Normal
vn 0 0 -1

# Mesh description
g MapUnity._mesh_0008

# Faces
f 1/1/1 2/2/1 3/3/1 4/4/1
f 5/1/1 6/2/1 7/3/1 8/4/1
f 9/5/1 10/6/1 11/7/1 12/8/1
f 13/1/1 14/2/1 15/3/1 16/4/1
f 17/9/1 18/10/1 19/11/1 20/12/1
f 21/5/1 22/6/1 23/7/1 24/8/1
f 25/9/1 26/10/1 27/11/1 28/12/1
f 29/5/1 30/6/1 31/7/1 32/8/1
f 33/13/1 34/14/1 35/15/1 36/16/1
f 37/14/1 38/17/1 39/18/1 40/15/1
f 41/6/1 42/1/1 43/4/1 44/7/1
f 45/6/1 46/1/1 47/4/1 48/7/1
f 49/9/1 50/10/1 51/11/1 52/12/1
f 53/9/1 54/10/1 55/11/1 56/12/1
f 57/5/1 58/6/1 59/7/1 60/8/1
f 61/9/1 62/10/1 63/11/1 64/12/1
f 65/6/1 66/1/1 67/4/1 68/7/1
f 69/1/1 70/2/1 71/3/1 72/4/1
f 73/9/1 74/10/1 75/11/1 76/12/1
f 77/9/1 78/10/1 79/11/1 80/12/1
f 81/10/1 82/19/1 83/20/1 84/11/1
f 85/2/1 86/21/1 87/22/1 88/3/1
f 89/2/1 90/21/1 91/22/1 92/3/1
f 93/1/1 94/2/1 95/3/1 96/4/1
f 97/5/1 98/6/1 99/7/1 100/8/1
f 101/6/1 102/1/1 103/4/1 104/7/1
f 105/10/1 106/19/1 107/20/1 108/11/1
f 109/9/1 110/10/1 111/11/1 112/12/1
f 113/5/1 114/6/1 115/7/1 116/8/1

